<?xml version="1.0" encoding="UTF-8" standalone="no"?>
<!-- Uploaded to: SVG Repo, www.svgrepo.com, Transformed by: SVG Repo Mixer Tools -->

<svg
   width="16"
   height="16"
   viewBox="0 0 10.24 10.24"
   fill="#000000"
   version="1.1"
   id="svg1"
   sodipodi:docname="fav-icon.svg"
   inkscape:version="1.3.2 (091e20e, 2023-11-25, custom)"
   xmlns:inkscape="http://www.inkscape.org/namespaces/inkscape"
   xmlns:sodipodi="http://sodipodi.sourceforge.net/DTD/sodipodi-0.dtd"
   xmlns="http://www.w3.org/2000/svg"
   xmlns:svg="http://www.w3.org/2000/svg">
  <defs
     id="defs1" />
  <sodipodi:namedview
     id="namedview1"
     pagecolor="#000000"
     bordercolor="#000000"
     borderopacity="0.25"
     inkscape:showpageshadow="2"
     inkscape:pageopacity="0.0"
     inkscape:pagecheckerboard="0"
     inkscape:deskcolor="#d1d1d1"
     inkscape:zoom="51.449089"
     inkscape:cx="8.5327069"
     inkscape:cy="8.8339756"
     inkscape:window-width="3840"
     inkscape:window-height="2054"
     inkscape:window-x="-11"
     inkscape:window-y="-11"
     inkscape:window-maximized="1"
     inkscape:current-layer="svg1" />
  <g
     id="SVGRepo_bgCarrier"
     stroke-width="0" />
  <g
     id="SVGRepo_tracerCarrier"
     stroke-linecap="round"
     stroke-linejoin="round" />
  <g
     id="SVGRepo_iconCarrier"
     style="fill:#ffffff"
     transform="matrix(0.01663996,0,0,0.01663996,0.90083915,0.824597)">
    <path
       fill="#ffffff"
       d="M 124.6937,21 C 67.4426,21 21,68.4844 21,127.0438 c 0,58.5594 46.4426,105.8969 103.6937,105.8969 12.9326,0 25.3034,-2.4644 36.7188,-6.9031 l 155.8346,80.7813 c -7.7593,7.2819 -14.3702,15.7433 -19.6818,25.1156 h 62.1284 c 28.7142,0 51.7,23.5043 51.7,52.875 0,29.3707 -22.9858,53.1688 -51.7,53.1688 h -62.1284 c 17.9357,31.648 51.4049,53.0218 89.7409,53.0218 57.2512,0 103.6938,-47.6313 103.6938,-106.1906 0,-58.5593 -46.4426,-105.8969 -103.6938,-105.8969 -12.9809,0 -25.4147,2.4329 -36.8658,6.9032 L 194.6062,205.0345 c 7.7917,-7.2981 14.4995,-15.7124 19.8284,-25.1157 h -62.1283 c -28.7142,0 -51.7,-23.5043 -51.7,-52.8749 0,-29.3706 22.9858,-53.1688 51.7,-53.1688 h 62.1283 C 196.4989,42.227 163.0298,21.0001 124.6937,21.0001 Z m 41.4188,68.8844 c -22.9158,0 -41.4188,16.6375 -41.4188,37.1594 0,20.5219 18.503,37.0124 41.4188,37.0124 H 449.5813 C 472.4975,164.0562 491,147.5655 491,127.0438 491,106.5221 472.4975,89.8844 449.5813,89.8844 Z M 62.4187,347.7969 C 39.5024,347.7969 21,364.2876 21,384.8094 c 0,20.5218 18.5025,37.3062 41.4187,37.3062 h 283.4688 c 22.9157,0 41.4187,-16.7845 41.4187,-37.3062 0,-20.5217 -18.503,-37.0125 -41.4187,-37.0125 z"
       id="path1"
       style="fill:#ffffff" />
  </g>
</svg>
